<svg xmlns="http://www.w3.org/2000/svg" xmlns:xlink="http://www.w3.org/1999/xlink" width="48" zoomAndPan="magnify" viewBox="0 0 36 36.000001" height="48" preserveAspectRatio="xMidYMid meet" version="1.0"><defs><clipPath id="7cddefab7e"><path d="M 0.488281 0 L 35.511719 0 L 35.511719 35.027344 L 0.488281 35.027344 Z M 0.488281 0 " clip-rule="nonzero"/></clipPath><clipPath id="80ca86e1ba"><path d="M 0.488281 9 L 35.511719 9 L 35.511719 22.78125 L 0.488281 22.78125 Z M 0.488281 9 " clip-rule="nonzero"/></clipPath></defs><g clip-path="url(#7cddefab7e)"><path fill="#ffffff" d="M 0.488281 0 L 35.511719 0 L 35.511719 35.027344 L 0.488281 35.027344 Z M 0.488281 0 " fill-opacity="1" fill-rule="nonzero"/><path fill="#004080" d="M 0.488281 0 L 35.511719 0 L 35.511719 35.027344 L 0.488281 35.027344 Z M 0.488281 0 " fill-opacity="1" fill-rule="nonzero"/></g><g clip-path="url(#80ca86e1ba)"><path fill="#ffffff" d="M -4.480469 22.015625 C -4.480469 22.015625 2.246094 16.671875 3.4375 17.089844 C 4.628906 17.511719 7.75 12.605469 8.730469 13.410156 C 9.710938 14.21875 9.921875 15.722656 10.9375 15.058594 C 11.957031 14.390625 17.667969 8.1875 18.792969 9.449219 C 19.914062 10.710938 22.507812 14.21875 23.839844 13.972656 C 25.171875 13.726562 25.699219 15.644531 26.644531 15.648438 C 27.589844 15.65625 28.609375 13.027344 29.589844 13.65625 C 30.570312 14.289062 31.867188 15.550781 32.917969 16.460938 C 33.972656 17.371094 38.773438 22.175781 38.074219 22.015625 C 37.371094 21.859375 36.25 19.894531 34.777344 19.863281 C 33.304688 19.828125 32.917969 19.265625 33.832031 20.210938 C 34.742188 21.160156 35.933594 22.457031 34.25 21.054688 C 32.570312 19.652344 32.359375 20 31.027344 18.773438 C 29.695312 17.546875 29.871094 16.882812 28.363281 16.671875 C 26.855469 16.460938 26.3125 16.164062 27.082031 17.003906 C 27.855469 17.847656 28.34375 18.5625 28.34375 18.5625 C 28.34375 18.5625 29.1875 19.828125 27.992188 18.5625 C 26.800781 17.300781 26.382812 16.847656 25.910156 16.671875 C 25.433594 16.496094 25.101562 15.601562 25.085938 15.480469 C 25.066406 15.355469 24.960938 14.359375 24.171875 14.359375 C 23.382812 14.359375 23.136719 14.375 23.136719 14.671875 C 23.136719 14.972656 22.351562 14.621094 22.105469 14.410156 C 21.859375 14.199219 18.492188 9.640625 18.195312 10.1875 C 17.898438 10.730469 18.074219 10.746094 18.074219 11.203125 C 18.074219 11.65625 19.054688 12.21875 19.457031 13.027344 C 19.859375 13.832031 19.40625 13.058594 19.914062 14.058594 C 20.421875 15.058594 20.914062 15.425781 19.683594 14.566406 C 18.457031 13.710938 18.089844 12.339844 17.546875 12.570312 C 17.003906 12.796875 17.460938 12.710938 17.179688 13.464844 C 16.898438 14.21875 17.441406 13.464844 17.425781 14.550781 C 17.40625 15.636719 19.019531 15.367188 19.859375 16.679688 C 20.703125 17.996094 20.9375 18.101562 21.648438 18.519531 C 22.359375 18.941406 23.253906 19.652344 22.464844 19.257812 C 21.675781 18.863281 20.203125 18.730469 19.464844 18.125 C 18.730469 17.519531 18.441406 17.757812 18.363281 18.363281 C 18.285156 18.96875 19.492188 18.757812 19.386719 19.335938 C 19.28125 19.914062 19.835938 19.730469 21.125 21.253906 C 22.410156 22.78125 22.675781 22.597656 21.4375 22.015625 C 20.203125 21.4375 19.992188 20.570312 18.730469 20.257812 C 17.46875 19.941406 17.390625 19.652344 16.023438 19.28125 C 14.65625 18.914062 15.546875 21.019531 14.445312 19.941406 C 13.339844 18.863281 11.945312 17.363281 11.183594 16.941406 C 10.421875 16.523438 10.449219 16.835938 9.765625 16.207031 C 9.082031 15.574219 8.609375 15.171875 8.898438 15.859375 C 9.1875 16.546875 9.789062 17.152344 10.132812 17.914062 C 10.472656 18.679688 10.054688 18.453125 10.304688 18.824219 C 10.554688 19.191406 10.671875 19.269531 10.777344 19.597656 C 10.882812 19.925781 10.867188 19.953125 10.488281 19.574219 C 10.105469 19.191406 9.949219 19.179688 9.910156 18.914062 C 9.871094 18.652344 9.871094 18.96875 9.238281 18.546875 C 8.609375 18.125 8.316406 17.875 7.632812 17.707031 C 6.949219 17.535156 7.121094 17.140625 6.726562 17.441406 C 6.332031 17.746094 6.320312 17.390625 6.1875 17.835938 C 6.058594 18.285156 6.703125 18.113281 7.042969 18.597656 C 7.386719 19.085938 6.898438 18.835938 7.9375 19.597656 C 8.976562 20.359375 8.4375 20.152344 8.988281 20.636719 C 9.539062 21.125 9.976562 21.125 10.304688 21.675781 C 10.632812 22.226562 11.066406 22.964844 10.421875 22.28125 C 9.777344 21.597656 9.699219 21.519531 9.042969 21.464844 C 8.382812 21.414062 8.277344 21.847656 7.78125 21.359375 C 7.28125 20.875 5.792969 20.964844 5.164062 20.269531 C 4.53125 19.574219 4.019531 18.613281 2.992188 19.03125 C 1.96875 19.453125 1.273438 18.585938 0.839844 19.152344 C 0.402344 19.71875 0.785156 19.203125 1.378906 19.886719 C 1.96875 20.570312 2.179688 20.441406 2.308594 20.714844 C 2.441406 20.992188 2.441406 20.792969 1.8125 20.570312 C 1.179688 20.347656 1.480469 20.269531 1.179688 20.347656 C 0.878906 20.425781 0.257812 19.375 -0.988281 20.203125 C -2.238281 21.03125 -1.871094 20.347656 -2.75 20.941406 C -3.632812 21.53125 -4.820312 22.503906 -4.480469 22.015625 " fill-opacity="1" fill-rule="nonzero"/></g></svg>