<svg xmlns="http://www.w3.org/2000/svg" xmlns:xlink="http://www.w3.org/1999/xlink" width="512" zoomAndPan="magnify" viewBox="0 0 384 383.999986" height="512" preserveAspectRatio="xMidYMid meet" version="1.0"><defs><g/></defs><g fill="#ffffff" fill-opacity="1"><g transform="translate(39.689272, 240.792255)"><g><path d="M 30.625 0 L 29.015625 -20.1875 L 28.8125 -20.1875 L 21.84375 -0.203125 L 17.21875 -0.203125 L 10.234375 -20.1875 L 10.03125 -20.1875 L 8.421875 0 L 0.65625 0 L 3.71875 -34.0625 L 11.96875 -34.0625 L 19.53125 -14.40625 L 27.078125 -34.0625 L 35.34375 -34.0625 L 38.390625 0 Z M 30.625 0 "/></g></g></g><g fill="#ffffff" fill-opacity="1"><g transform="translate(91.530175, 240.792255)"><g><path d="M 21.96875 -34.0625 L 21.96875 -27.25 L 10.234375 -27.25 L 10.234375 -20.46875 L 21.46875 -20.46875 L 21.46875 -13.671875 L 10.234375 -13.671875 L 10.234375 -6.8125 L 21.96875 -6.8125 L 21.96875 0 L 2.484375 0 L 2.484375 -34.0625 Z M 21.96875 -34.0625 "/></g></g></g><g fill="#ffffff" fill-opacity="1"><g transform="translate(128.265825, 240.792255)"><g><path d="M 10.234375 -21.140625 L 10.234375 0 L 2.484375 0 L 2.484375 -34.0625 L 10.234375 -34.0625 L 23.78125 -12.921875 L 23.859375 -12.921875 L 23.859375 -34.0625 L 31.625 -34.0625 L 31.625 0 L 23.859375 0 L 10.3125 -21.140625 Z M 10.234375 -21.140625 "/></g></g></g><g fill="#ffffff" fill-opacity="1"><g transform="translate(175.154193, 240.792255)"><g><path d="M 2.484375 -34.0625 L 12.34375 -34.0625 C 17.070312 -34.0625 21.113281 -32.441406 24.46875 -29.203125 C 27.832031 -25.972656 29.515625 -21.921875 29.515625 -17.046875 C 29.515625 -12.148438 27.84375 -8.082031 24.5 -4.84375 C 21.15625 -1.613281 17.101562 0 12.34375 0 L 2.484375 0 Z M 10.234375 -6.9375 L 11.4375 -6.9375 C 14.269531 -6.9375 16.585938 -7.890625 18.390625 -9.796875 C 20.191406 -11.710938 21.109375 -14.117188 21.140625 -17.015625 C 21.140625 -19.898438 20.238281 -22.304688 18.4375 -24.234375 C 16.632812 -26.160156 14.300781 -27.125 11.4375 -27.125 L 10.234375 -27.125 Z M 10.234375 -6.9375 "/></g></g></g><g fill="#ffffff" fill-opacity="1"><g transform="translate(218.410696, 240.792255)"><g><path d="M 0.953125 -17.046875 C 0.953125 -21.972656 2.628906 -26.140625 5.984375 -29.546875 C 9.335938 -32.960938 13.382812 -34.671875 18.125 -34.671875 C 22.882812 -34.671875 26.925781 -32.972656 30.25 -29.578125 C 33.582031 -26.179688 35.25 -22.003906 35.25 -17.046875 C 35.25 -12.066406 33.609375 -7.875 30.328125 -4.46875 C 27.054688 -1.070312 22.988281 0.625 18.125 0.625 C 13.144531 0.625 9.035156 -1.0625 5.796875 -4.4375 C 2.566406 -7.8125 0.953125 -12.015625 0.953125 -17.046875 Z M 9.328125 -17.046875 C 9.328125 -15.253906 9.601562 -13.625 10.15625 -12.15625 C 10.707031 -10.6875 11.671875 -9.441406 13.046875 -8.421875 C 14.421875 -7.398438 16.113281 -6.890625 18.125 -6.890625 C 21.007812 -6.890625 23.1875 -7.878906 24.65625 -9.859375 C 26.132812 -11.847656 26.875 -14.242188 26.875 -17.046875 C 26.875 -19.828125 26.125 -22.210938 24.625 -24.203125 C 23.125 -26.203125 20.957031 -27.203125 18.125 -27.203125 C 15.3125 -27.203125 13.140625 -26.203125 11.609375 -24.203125 C 10.085938 -22.210938 9.328125 -19.828125 9.328125 -17.046875 Z M 9.328125 -17.046875 "/></g></g></g><g fill="#ffffff" fill-opacity="1"><g transform="translate(267.403884, 240.792255)"><g><path d="M 31.078125 -34.0625 L 14.203125 -6.8125 L 29.96875 -6.8125 L 29.96875 0 L 0.65625 0 L 17.5 -27.25 L 3.0625 -27.25 L 3.0625 -34.0625 Z M 31.078125 -34.0625 "/></g></g></g><g fill="#ffffff" fill-opacity="1"><g transform="translate(311.939777, 240.792255)"><g><path d="M 19.78125 -34.0625 L 33.515625 0 L 25.1875 0 L 22.65625 -6.8125 L 9.703125 -6.8125 L 7.1875 0 L -1.15625 0 L 12.59375 -34.0625 Z M 20.015625 -13.625 L 16.21875 -23.53125 L 16.140625 -23.53125 L 12.34375 -13.625 Z M 20.015625 -13.625 "/></g></g></g><g fill="#ffffff" fill-opacity="1"><g transform="translate(110.698512, 271.003456)"><g><path d="M 13.96875 -5.203125 C 13.757812 -3.460938 13.113281 -2.125 12.03125 -1.1875 C 10.957031 -0.25 9.53125 0.21875 7.75 0.21875 C 5.8125 0.21875 4.257812 -0.472656 3.09375 -1.859375 C 1.925781 -3.242188 1.34375 -5.101562 1.34375 -7.4375 L 1.34375 -9.015625 C 1.34375 -10.535156 1.613281 -11.875 2.15625 -13.03125 C 2.695312 -14.1875 3.46875 -15.070312 4.46875 -15.6875 C 5.46875 -16.3125 6.625 -16.625 7.9375 -16.625 C 9.675781 -16.625 11.070312 -16.132812 12.125 -15.15625 C 13.175781 -14.1875 13.789062 -12.84375 13.96875 -11.125 L 11.796875 -11.125 C 11.609375 -12.425781 11.195312 -13.367188 10.5625 -13.953125 C 9.9375 -14.546875 9.0625 -14.84375 7.9375 -14.84375 C 6.550781 -14.84375 5.46875 -14.332031 4.6875 -13.3125 C 3.90625 -12.289062 3.515625 -10.835938 3.515625 -8.953125 L 3.515625 -7.359375 C 3.515625 -5.585938 3.882812 -4.175781 4.625 -3.125 C 5.375 -2.070312 6.414062 -1.546875 7.75 -1.546875 C 8.945312 -1.546875 9.863281 -1.816406 10.5 -2.359375 C 11.144531 -2.898438 11.578125 -3.847656 11.796875 -5.203125 Z M 13.96875 -5.203125 "/></g></g></g><g fill="#ffffff" fill-opacity="1"><g transform="translate(134.754089, 271.003456)"><g><path d="M 14.5 0 L 12.328125 0 L 12.328125 -7.578125 L 4.0625 -7.578125 L 4.0625 0 L 1.90625 0 L 1.90625 -16.390625 L 4.0625 -16.390625 L 4.0625 -9.34375 L 12.328125 -9.34375 L 12.328125 -16.390625 L 14.5 -16.390625 Z M 14.5 0 "/></g></g></g><g fill="#ffffff" fill-opacity="1"><g transform="translate(160.239764, 271.003456)"><g><path d="M 10.953125 -4.28125 L 4.09375 -4.28125 L 2.546875 0 L 0.3125 0 L 6.578125 -16.390625 L 8.46875 -16.390625 L 14.734375 0 L 12.515625 0 Z M 4.734375 -6.0625 L 10.3125 -6.0625 L 7.515625 -13.734375 Z M 4.734375 -6.0625 "/></g></g></g><g fill="#ffffff" fill-opacity="1"><g transform="translate(184.329112, 271.003456)"><g><path d="M 4.703125 -16.390625 L 10.0625 -3.015625 L 15.421875 -16.390625 L 18.21875 -16.390625 L 18.21875 0 L 16.0625 0 L 16.0625 -6.390625 L 16.265625 -13.28125 L 10.875 0 L 9.21875 0 L 3.84375 -13.25 L 4.0625 -6.390625 L 4.0625 0 L 1.90625 0 L 1.90625 -16.390625 Z M 4.703125 -16.390625 "/></g></g></g><g fill="#ffffff" fill-opacity="1"><g transform="translate(213.508293, 271.003456)"><g><path d="M 1.90625 0 L 1.90625 -16.390625 L 7.265625 -16.390625 C 9.046875 -16.390625 10.382812 -16.019531 11.28125 -15.28125 C 12.175781 -14.550781 12.625 -13.46875 12.625 -12.03125 C 12.625 -11.257812 12.40625 -10.578125 11.96875 -9.984375 C 11.53125 -9.398438 10.9375 -8.945312 10.1875 -8.625 C 11.070312 -8.375 11.769531 -7.898438 12.28125 -7.203125 C 12.800781 -6.515625 13.0625 -5.691406 13.0625 -4.734375 C 13.0625 -3.253906 12.582031 -2.09375 11.625 -1.25 C 10.675781 -0.414062 9.332031 0 7.59375 0 Z M 4.0625 -7.671875 L 4.0625 -1.765625 L 7.640625 -1.765625 C 8.640625 -1.765625 9.429688 -2.023438 10.015625 -2.546875 C 10.597656 -3.066406 10.890625 -3.785156 10.890625 -4.703125 C 10.890625 -6.679688 9.816406 -7.671875 7.671875 -7.671875 Z M 4.0625 -9.40625 L 7.328125 -9.40625 C 8.273438 -9.40625 9.03125 -9.640625 9.59375 -10.109375 C 10.164062 -10.585938 10.453125 -11.226562 10.453125 -12.03125 C 10.453125 -12.9375 10.1875 -13.59375 9.65625 -14 C 9.132812 -14.40625 8.335938 -14.609375 7.265625 -14.609375 L 4.0625 -14.609375 Z M 4.0625 -9.40625 "/></g></g></g><g fill="#ffffff" fill-opacity="1"><g transform="translate(236.910755, 271.003456)"><g><path d="M 11.171875 -7.578125 L 4.0625 -7.578125 L 4.0625 -1.765625 L 12.3125 -1.765625 L 12.3125 0 L 1.90625 0 L 1.90625 -16.390625 L 12.203125 -16.390625 L 12.203125 -14.609375 L 4.0625 -14.609375 L 4.0625 -9.34375 L 11.171875 -9.34375 Z M 11.171875 -7.578125 "/></g></g></g><g fill="#ffffff" fill-opacity="1"><g transform="translate(259.063274, 271.003456)"><g><path d="M 7.921875 -6.625 L 4.0625 -6.625 L 4.0625 0 L 1.890625 0 L 1.890625 -16.390625 L 7.3125 -16.390625 C 9.164062 -16.390625 10.585938 -15.96875 11.578125 -15.125 C 12.578125 -14.289062 13.078125 -13.070312 13.078125 -11.46875 C 13.078125 -10.445312 12.800781 -9.554688 12.25 -8.796875 C 11.695312 -8.035156 10.925781 -7.46875 9.9375 -7.09375 L 13.796875 -0.140625 L 13.796875 0 L 11.46875 0 Z M 4.0625 -8.40625 L 7.390625 -8.40625 C 8.460938 -8.40625 9.316406 -8.679688 9.953125 -9.234375 C 10.585938 -9.785156 10.90625 -10.53125 10.90625 -11.46875 C 10.90625 -12.476562 10.601562 -13.253906 10 -13.796875 C 9.394531 -14.335938 8.519531 -14.609375 7.375 -14.609375 L 4.0625 -14.609375 Z M 4.0625 -8.40625 "/></g></g></g><g fill="#ffffff" fill-opacity="1"><g transform="translate(66.327543, 303.202433)"><g><path d="M 14.515625 -7.671875 C 14.515625 -6.066406 14.242188 -4.664062 13.703125 -3.46875 C 13.160156 -2.269531 12.394531 -1.351562 11.40625 -0.71875 C 10.414062 -0.09375 9.257812 0.21875 7.9375 0.21875 C 6.644531 0.21875 5.5 -0.09375 4.5 -0.71875 C 3.5 -1.351562 2.722656 -2.257812 2.171875 -3.4375 C 1.617188 -4.613281 1.335938 -5.972656 1.328125 -7.515625 L 1.328125 -8.703125 C 1.328125 -10.273438 1.597656 -11.664062 2.140625 -12.875 C 2.691406 -14.09375 3.46875 -15.019531 4.46875 -15.65625 C 5.476562 -16.300781 6.628906 -16.625 7.921875 -16.625 C 9.234375 -16.625 10.390625 -16.304688 11.390625 -15.671875 C 12.390625 -15.035156 13.160156 -14.113281 13.703125 -12.90625 C 14.242188 -11.707031 14.515625 -10.304688 14.515625 -8.703125 Z M 12.359375 -8.734375 C 12.359375 -10.671875 11.96875 -12.160156 11.1875 -13.203125 C 10.40625 -14.242188 9.316406 -14.765625 7.921875 -14.765625 C 6.546875 -14.765625 5.46875 -14.242188 4.6875 -13.203125 C 3.90625 -12.160156 3.503906 -10.71875 3.484375 -8.875 L 3.484375 -7.671875 C 3.484375 -5.785156 3.878906 -4.300781 4.671875 -3.21875 C 5.460938 -2.144531 6.550781 -1.609375 7.9375 -1.609375 C 9.332031 -1.609375 10.410156 -2.113281 11.171875 -3.125 C 11.941406 -4.144531 12.335938 -5.609375 12.359375 -7.515625 Z M 12.359375 -8.734375 "/></g></g></g><g fill="#ffffff" fill-opacity="1"><g transform="translate(91.227663, 303.202433)"><g><path d="M 10.953125 -7.234375 L 4.0625 -7.234375 L 4.0625 0 L 1.90625 0 L 1.90625 -16.390625 L 12.0625 -16.390625 L 12.0625 -14.609375 L 4.0625 -14.609375 L 4.0625 -9.015625 L 10.953125 -9.015625 Z M 10.953125 -7.234375 "/></g></g></g><g fill="#ffffff" fill-opacity="1"><g transform="translate(113.019836, 303.202433)"><g/></g></g><g fill="#ffffff" fill-opacity="1"><g transform="translate(127.774094, 303.202433)"><g><path d="M 13.96875 -5.203125 C 13.757812 -3.460938 13.113281 -2.125 12.03125 -1.1875 C 10.957031 -0.25 9.53125 0.21875 7.75 0.21875 C 5.8125 0.21875 4.257812 -0.472656 3.09375 -1.859375 C 1.925781 -3.242188 1.34375 -5.101562 1.34375 -7.4375 L 1.34375 -9.015625 C 1.34375 -10.535156 1.613281 -11.875 2.15625 -13.03125 C 2.695312 -14.1875 3.46875 -15.070312 4.46875 -15.6875 C 5.46875 -16.3125 6.625 -16.625 7.9375 -16.625 C 9.675781 -16.625 11.070312 -16.132812 12.125 -15.15625 C 13.175781 -14.1875 13.789062 -12.84375 13.96875 -11.125 L 11.796875 -11.125 C 11.609375 -12.425781 11.195312 -13.367188 10.5625 -13.953125 C 9.9375 -14.546875 9.0625 -14.84375 7.9375 -14.84375 C 6.550781 -14.84375 5.46875 -14.332031 4.6875 -13.3125 C 3.90625 -12.289062 3.515625 -10.835938 3.515625 -8.953125 L 3.515625 -7.359375 C 3.515625 -5.585938 3.882812 -4.175781 4.625 -3.125 C 5.375 -2.070312 6.414062 -1.546875 7.75 -1.546875 C 8.945312 -1.546875 9.863281 -1.816406 10.5 -2.359375 C 11.144531 -2.898438 11.578125 -3.847656 11.796875 -5.203125 Z M 13.96875 -5.203125 "/></g></g></g><g fill="#ffffff" fill-opacity="1"><g transform="translate(151.829671, 303.202433)"><g><path d="M 14.515625 -7.671875 C 14.515625 -6.066406 14.242188 -4.664062 13.703125 -3.46875 C 13.160156 -2.269531 12.394531 -1.351562 11.40625 -0.71875 C 10.414062 -0.09375 9.257812 0.21875 7.9375 0.21875 C 6.644531 0.21875 5.5 -0.09375 4.5 -0.71875 C 3.5 -1.351562 2.722656 -2.257812 2.171875 -3.4375 C 1.617188 -4.613281 1.335938 -5.972656 1.328125 -7.515625 L 1.328125 -8.703125 C 1.328125 -10.273438 1.597656 -11.664062 2.140625 -12.875 C 2.691406 -14.09375 3.46875 -15.019531 4.46875 -15.65625 C 5.476562 -16.300781 6.628906 -16.625 7.921875 -16.625 C 9.234375 -16.625 10.390625 -16.304688 11.390625 -15.671875 C 12.390625 -15.035156 13.160156 -14.113281 13.703125 -12.90625 C 14.242188 -11.707031 14.515625 -10.304688 14.515625 -8.703125 Z M 12.359375 -8.734375 C 12.359375 -10.671875 11.96875 -12.160156 11.1875 -13.203125 C 10.40625 -14.242188 9.316406 -14.765625 7.921875 -14.765625 C 6.546875 -14.765625 5.46875 -14.242188 4.6875 -13.203125 C 3.90625 -12.160156 3.503906 -10.71875 3.484375 -8.875 L 3.484375 -7.671875 C 3.484375 -5.785156 3.878906 -4.300781 4.671875 -3.21875 C 5.460938 -2.144531 6.550781 -1.609375 7.9375 -1.609375 C 9.332031 -1.609375 10.410156 -2.113281 11.171875 -3.125 C 11.941406 -4.144531 12.335938 -5.609375 12.359375 -7.515625 Z M 12.359375 -8.734375 "/></g></g></g><g fill="#ffffff" fill-opacity="1"><g transform="translate(176.729795, 303.202433)"><g><path d="M 4.703125 -16.390625 L 10.0625 -3.015625 L 15.421875 -16.390625 L 18.21875 -16.390625 L 18.21875 0 L 16.0625 0 L 16.0625 -6.390625 L 16.265625 -13.28125 L 10.875 0 L 9.21875 0 L 3.84375 -13.25 L 4.0625 -6.390625 L 4.0625 0 L 1.90625 0 L 1.90625 -16.390625 Z M 4.703125 -16.390625 "/></g></g></g><g fill="#ffffff" fill-opacity="1"><g transform="translate(205.908976, 303.202433)"><g><path d="M 4.703125 -16.390625 L 10.0625 -3.015625 L 15.421875 -16.390625 L 18.21875 -16.390625 L 18.21875 0 L 16.0625 0 L 16.0625 -6.390625 L 16.265625 -13.28125 L 10.875 0 L 9.21875 0 L 3.84375 -13.25 L 4.0625 -6.390625 L 4.0625 0 L 1.90625 0 L 1.90625 -16.390625 Z M 4.703125 -16.390625 "/></g></g></g><g fill="#ffffff" fill-opacity="1"><g transform="translate(235.088157, 303.202433)"><g><path d="M 11.171875 -7.578125 L 4.0625 -7.578125 L 4.0625 -1.765625 L 12.3125 -1.765625 L 12.3125 0 L 1.90625 0 L 1.90625 -16.390625 L 12.203125 -16.390625 L 12.203125 -14.609375 L 4.0625 -14.609375 L 4.0625 -9.34375 L 11.171875 -9.34375 Z M 11.171875 -7.578125 "/></g></g></g><g fill="#ffffff" fill-opacity="1"><g transform="translate(257.240676, 303.202433)"><g><path d="M 7.921875 -6.625 L 4.0625 -6.625 L 4.0625 0 L 1.890625 0 L 1.890625 -16.390625 L 7.3125 -16.390625 C 9.164062 -16.390625 10.585938 -15.96875 11.578125 -15.125 C 12.578125 -14.289062 13.078125 -13.070312 13.078125 -11.46875 C 13.078125 -10.445312 12.800781 -9.554688 12.25 -8.796875 C 11.695312 -8.035156 10.925781 -7.46875 9.9375 -7.09375 L 13.796875 -0.140625 L 13.796875 0 L 11.46875 0 Z M 4.0625 -8.40625 L 7.390625 -8.40625 C 8.460938 -8.40625 9.316406 -8.679688 9.953125 -9.234375 C 10.585938 -9.785156 10.90625 -10.53125 10.90625 -11.46875 C 10.90625 -12.476562 10.601562 -13.253906 10 -13.796875 C 9.394531 -14.335938 8.519531 -14.609375 7.375 -14.609375 L 4.0625 -14.609375 Z M 4.0625 -8.40625 "/></g></g></g><g fill="#ffffff" fill-opacity="1"><g transform="translate(280.485488, 303.202433)"><g><path d="M 13.96875 -5.203125 C 13.757812 -3.460938 13.113281 -2.125 12.03125 -1.1875 C 10.957031 -0.25 9.53125 0.21875 7.75 0.21875 C 5.8125 0.21875 4.257812 -0.472656 3.09375 -1.859375 C 1.925781 -3.242188 1.34375 -5.101562 1.34375 -7.4375 L 1.34375 -9.015625 C 1.34375 -10.535156 1.613281 -11.875 2.15625 -13.03125 C 2.695312 -14.1875 3.46875 -15.070312 4.46875 -15.6875 C 5.46875 -16.3125 6.625 -16.625 7.9375 -16.625 C 9.675781 -16.625 11.070312 -16.132812 12.125 -15.15625 C 13.175781 -14.1875 13.789062 -12.84375 13.96875 -11.125 L 11.796875 -11.125 C 11.609375 -12.425781 11.195312 -13.367188 10.5625 -13.953125 C 9.9375 -14.546875 9.0625 -14.84375 7.9375 -14.84375 C 6.550781 -14.84375 5.46875 -14.332031 4.6875 -13.3125 C 3.90625 -12.289062 3.515625 -10.835938 3.515625 -8.953125 L 3.515625 -7.359375 C 3.515625 -5.585938 3.882812 -4.175781 4.625 -3.125 C 5.375 -2.070312 6.414062 -1.546875 7.75 -1.546875 C 8.945312 -1.546875 9.863281 -1.816406 10.5 -2.359375 C 11.144531 -2.898438 11.578125 -3.847656 11.796875 -5.203125 Z M 13.96875 -5.203125 "/></g></g></g><g fill="#ffffff" fill-opacity="1"><g transform="translate(304.54107, 303.202433)"><g><path d="M 11.171875 -7.578125 L 4.0625 -7.578125 L 4.0625 -1.765625 L 12.3125 -1.765625 L 12.3125 0 L 1.90625 0 L 1.90625 -16.390625 L 12.203125 -16.390625 L 12.203125 -14.609375 L 4.0625 -14.609375 L 4.0625 -9.34375 L 11.171875 -9.34375 Z M 11.171875 -7.578125 "/></g></g></g><path fill="#ffffff" d="M 23.046875 182.644531 C 23.046875 182.644531 76.007812 140.554688 85.394531 143.863281 C 94.777344 147.175781 119.34375 108.535156 127.070312 114.882812 C 134.800781 121.234375 136.457031 133.097656 144.460938 127.855469 C 152.464844 122.613281 197.457031 73.757812 206.289062 83.695312 C 215.121094 93.628906 235.546875 121.234375 246.035156 119.300781 C 256.523438 117.367188 260.664062 132.464844 268.117188 132.503906 C 275.566406 132.550781 283.574219 111.847656 291.300781 116.816406 C 299.027344 121.785156 309.242188 131.722656 317.523438 138.898438 C 325.800781 146.074219 363.617188 183.886719 358.097656 182.644531 C 352.574219 181.402344 343.742188 165.945312 332.152344 165.671875 C 320.558594 165.394531 317.523438 160.980469 324.699219 168.429688 C 331.875 175.882812 341.257812 186.097656 328.007812 175.058594 C 314.761719 164.015625 313.105469 166.777344 302.617188 157.113281 C 292.128906 147.453125 293.507812 142.210938 281.640625 140.554688 C 269.769531 138.898438 265.496094 136.550781 271.566406 143.175781 C 277.636719 149.800781 281.503906 155.457031 281.503906 155.457031 C 281.503906 155.457031 288.128906 165.394531 278.742188 155.457031 C 269.359375 145.523438 266.046875 141.933594 262.320312 140.554688 C 258.589844 139.171875 255.96875 132.136719 255.832031 131.167969 C 255.695312 130.203125 254.867188 122.335938 248.65625 122.335938 C 242.445312 122.335938 240.511719 122.472656 240.511719 124.824219 C 240.511719 127.167969 234.300781 124.40625 232.371094 122.75 C 230.441406 121.09375 203.941406 85.210938 201.597656 89.492188 C 199.25 93.769531 200.628906 93.90625 200.628906 97.496094 C 200.628906 101.082031 208.359375 105.5 211.53125 111.847656 C 214.707031 118.195312 211.117188 112.121094 215.121094 119.988281 C 219.121094 127.855469 222.988281 130.753906 213.324219 123.992188 C 203.667969 117.230469 200.769531 106.464844 196.492188 108.261719 C 192.210938 110.054688 195.800781 109.363281 193.59375 115.296875 C 191.386719 121.234375 195.660156 115.296875 195.523438 123.855469 C 195.386719 132.410156 208.082031 130.273438 214.707031 140.625 C 221.332031 150.972656 223.195312 151.800781 228.78125 155.113281 C 234.371094 158.425781 241.410156 164.015625 235.199219 160.910156 C 228.992188 157.804688 217.398438 156.769531 211.601562 152.007812 C 205.804688 147.246094 203.527344 149.109375 202.90625 153.871094 C 202.285156 158.632812 211.808594 156.976562 210.980469 161.53125 C 210.15625 166.085938 214.5 164.636719 224.644531 176.640625 C 234.785156 188.648438 236.855469 187.199219 227.125 182.644531 C 217.398438 178.09375 215.742188 171.261719 205.804688 168.777344 C 195.867188 166.292969 195.246094 164.015625 184.484375 161.117188 C 173.71875 158.21875 180.757812 174.78125 172.0625 166.292969 C 163.367188 157.804688 152.398438 146.003906 146.394531 142.695312 C 140.390625 139.378906 140.597656 141.863281 135.214844 136.894531 C 129.832031 131.929688 126.105469 128.753906 128.382812 134.171875 C 130.660156 139.585938 135.421875 144.347656 138.113281 150.351562 C 140.804688 156.355469 137.492188 154.597656 139.457031 157.496094 C 141.425781 160.394531 142.355469 161.015625 143.183594 163.601562 C 144.011719 166.191406 143.910156 166.394531 140.90625 163.394531 C 137.90625 160.394531 136.664062 160.289062 136.355469 158.21875 C 136.042969 156.148438 136.042969 158.632812 131.074219 155.320312 C 126.105469 152.007812 123.828125 150.042969 118.445312 148.699219 C 113.066406 147.351562 114.410156 144.246094 111.304688 146.625 C 108.199219 149.007812 108.097656 146.210938 107.0625 149.730469 C 106.027344 153.25 111.097656 151.90625 113.789062 155.734375 C 116.480469 159.5625 112.652344 157.597656 120.828125 163.601562 C 129.003906 169.605469 124.761719 167.945312 129.109375 171.777344 C 133.457031 175.605469 136.871094 175.605469 139.457031 179.957031 C 142.046875 184.300781 145.460938 190.097656 140.390625 184.714844 C 135.320312 179.332031 134.699219 178.710938 129.523438 178.296875 C 124.347656 177.882812 123.519531 181.300781 119.585938 177.472656 C 115.652344 173.640625 103.957031 174.367188 98.988281 168.878906 C 94.019531 163.394531 89.984375 155.835938 81.910156 159.148438 C 73.835938 162.460938 68.351562 155.628906 64.933594 160.082031 C 61.519531 164.53125 64.519531 160.496094 69.179688 165.878906 C 73.835938 171.261719 75.492188 170.222656 76.527344 172.398438 C 77.5625 174.574219 77.5625 173.019531 72.59375 171.261719 C 67.625 169.5 70.007812 168.878906 67.625 169.5 C 65.246094 170.121094 60.378906 161.839844 50.546875 168.359375 C 40.714844 174.882812 43.613281 169.5 36.675781 174.160156 C 29.742188 178.816406 20.386719 186.476562 23.046875 182.644531 " fill-opacity="1" fill-rule="nonzero"/></svg>